<svg class="icon" width="200px" height="200.00px" viewBox="0 0 1024 1024" version="1.1"
    xmlns="http://www.w3.org/2000/svg">
    <path d="M282.3 186.1c-1.8 0-3.7 0.2-5.6 0.5-17.4 3.1-29 19.7-26 37.1l96.8 549.1c2.7 15.5 16.2 26.5 31.5 26.5 1.8 0 3.7-0.2 5.6-0.5 17.4-3.1 29-19.7 26-37.1l-96.8-549.1c-2.8-15.6-16.3-26.5-31.5-26.5z" fill="#1296db" />
    <path d="M833.2 474.5l-489.4 86.3c-18 3.2-35.2-8.9-38.4-26.9l-54.5-309.1c-3.2-18 8.9-35.2 26.9-38.4l489.1-86.2c22.4-3.9 42 15.3 38.5 37.7l-21.6 139.7c-1.1 7.2 0.2 14.5 3.6 20.9l69.1 127.7c10.9 19.8-1 44.4-23.3 48.3zM910.7 850.3L875.1 690c-6.5-29.3-32.5-50.1-62.5-50.1H480.1c-17.7 0-32 14.3-32 32s14.3 32 32 32H812.7l35.6 160.3H177.8L213.4 704H256c17.7 0 32-14.3 32-32s-14.3-32-32-32h-42.7c-30 0-56 20.8-62.5 50.1l-35.6 160.3c-8.9 40 21.5 77.9 62.5 77.9h670.5c41-0.1 71.4-38 62.5-78z" fill="#1296db" />
</svg>