<svg class="icon" width="200px" height="200.00px" viewBox="0 0 1024 1024" version="1.1"
    xmlns="http://www.w3.org/2000/svg">
    <path d="M640 213.333333c0-8.533333 4.266667-17.066667 12.8-21.333333l102.4-38.4 38.4-102.4c0-4.266667 8.533333-8.533333 17.066667-8.533333s17.066667 4.266667 17.066666 12.8l38.4 102.4 102.4 38.4c8.533333 0 12.8 8.533333 12.8 17.066666s-4.266667 17.066667-12.8 17.066667l-102.4 38.4-38.4 102.4c0 8.533333-8.533333 12.8-17.066666 12.8s-17.066667-4.266667-21.333334-12.8l-38.4-102.4-102.4-38.4c-4.266667 0-8.533333-8.533333-8.533333-17.066667z" fill="#1296db" />
    <path d="M938.666667 686.933333v-226.133333c0-25.6-17.066667-42.666667-42.666667-42.666667s-42.666667 17.066667-42.666667 42.666667v238.933333c-4.266667 0-4.266667 4.266667-12.8 8.533334L554.666667 866.133333v-328.533333l157.866666-89.6c21.333333-12.8 29.866667-38.4 17.066667-59.733333s-38.4-29.866667-59.733333-17.066667L512 465.066667 217.6 298.666667l281.6-157.866667c8.533333-4.266667 8.533333-4.266667 12.8-8.533333 4.266667 0 4.266667 4.266667 12.8 8.533333l12.8 8.533333c21.333333 12.8 46.933333 4.266667 59.733333-17.066666 12.8-21.333333 4.266667-46.933333-17.066666-59.733334l-12.8-8.533333h-4.266667c-8.533333-4.266667-21.333333-12.8-34.133333-12.8-12.8-4.266667-21.333333-4.266667-34.133334 0-12.8 4.266667-25.6 8.533333-34.133333 12.8h-4.266667L140.8 243.2h-4.266667c-8.533333 4.266667-17.066667 12.8-29.866666 21.333333-8.533333 8.533333-12.8 21.333333-17.066667 34.133334-4.266667 12.8-4.266667 25.6-4.266667 38.4V691.2c0 12.8 0 25.6 4.266667 38.4 4.266667 12.8 8.533333 21.333333 17.066667 29.866667 12.8 8.533333 21.333333 17.066667 34.133333 21.333333h4.266667l315.733333 174.933333h4.266667c8.533333 4.266667 21.333333 12.8 34.133333 12.8 12.8 4.266667 21.333333 4.266667 34.133333 0 12.8-4.266667 25.6-8.533333 34.133334-12.8h4.266666l315.733334-174.933333h4.266666c8.533333-4.266667 21.333333-12.8 29.866667-21.333333 8.533333-8.533333 12.8-21.333333 17.066667-29.866667v-42.666667z m-469.333334 179.2l-285.866666-157.866666c-8.533333-4.266667-8.533333-4.266667-12.8-8.533334V371.2l298.666666 166.4v328.533333z" fill="#1296db" />
</svg>