<svg class="icon" width="200px" height="200.00px" viewBox="0 0 1024 1024" version="1.1"
    xmlns="http://www.w3.org/2000/svg">
    <path d="M184.4736 971.3152A107.8272 107.8272 0 0 1 76.8 863.6416V159.5136a107.776 107.776 0 0 1 107.6736-107.5712h492.9536a37.2224 37.2224 0 1 1 0 74.4192H184.4736a33.28 33.28 0 0 0-33.28 33.28v704a33.4592 33.4592 0 0 0 33.28 33.28h633.6a33.28 33.28 0 0 0 33.28-33.28v-412.928a37.1712 37.1712 0 1 1 74.24 0v412.9792a107.6736 107.6736 0 0 1-107.52 107.6736z m120.4736-302.3104a37.1712 37.1712 0 1 1 0-74.24h422.4a37.1712 37.1712 0 1 1 0 74.24z m0-211.2256a37.2224 37.2224 0 1 1 0-74.4192h211.1488a37.2224 37.2224 0 1 1 0 74.4192z" fill="#495060" />
    <path d="M635.008 446.8736a37.504 37.504 0 0 1 0-52.6336L934.8864 94.4128a36.5056 36.5056 0 0 1 26.2912-10.9568 37.2224 37.2224 0 0 1 26.2912 63.5648L687.5904 446.8736a37.376 37.376 0 0 1-26.1376 10.5216 38.0672 38.0672 0 0 1-26.4448-10.4704z" fill="#2D8CF0" />
</svg>